<svg width="23" height="28" viewBox="0 0 23 28" xmlns="http://www.w3.org/2000/svg">
  <path d="M19.3333 13.8737V5.5C19.3333 2.46125 15.0075 0 9.66667 0C4.32583 0 0 2.46125 0 5.5V19.25C0 22.2887 4.33792 24.75 9.66667 24.75C10.2225 24.75 10.7542 24.75 11.2738 24.6675C11.0127 23.8094 10.878 22.9081 10.875 22V21.9312C10.4883 22 10.0896 22 9.66667 22C4.99042 22 2.41667 19.9375 2.41667 19.25V16.1838C4.36208 17.2562 6.91167 17.875 9.66667 17.875C10.4521 17.875 11.2013 17.82 11.9383 17.7237C12.5824 16.5121 13.49 15.5098 14.5738 14.8137C15.6575 14.1177 16.8806 13.7513 18.125 13.75C18.5358 13.75 18.9346 13.805 19.3333 13.8737ZM16.9167 12.9937C15.3458 14.3 12.5908 15.125 9.66667 15.125C6.7425 15.125 3.9875 14.3 2.41667 12.9937V9.13C4.19292 10.2712 6.77875 11 9.66667 11C12.5546 11 15.1404 10.2712 16.9167 9.13V12.9937ZM9.66667 8.25C4.99042 8.25 2.41667 6.1875 2.41667 5.5C2.41667 4.8125 4.99042 2.75 9.66667 2.75C14.3429 2.75 16.9167 4.8125 16.9167 5.5C16.9167 6.1875 14.3429 8.25 9.66667 8.25ZM22.9583 20.625V23.375H19.3333V27.5H16.9167V23.375H13.2917V20.625H16.9167V16.5H19.3333V20.625H22.9583Z" />
</svg>