<svg width="30" height="30" viewBox="0 0 30 30" fill="none" xmlns="http://www.w3.org/2000/svg">
<path d="M13.75 29.0625C9.75313 29.0625 6.89625 28.9344 5.03562 28.8056C2.98688 28.6637 1.37063 27.1075 1.2025 25.0419C1.06625 23.3681 0.9375 20.8906 0.9375 17.5C0.9375 14.1094 1.06625 11.6312 1.2025 9.95812C1.37063 7.8925 2.98688 6.33625 5.03562 6.19438C6.89625 6.06563 9.75313 5.9375 13.75 5.9375C17.7469 5.9375 20.6038 6.06563 22.4644 6.19438C24.5131 6.33625 26.1294 7.8925 26.2975 9.95812C26.4338 11.6319 26.5625 14.1094 26.5625 17.5C26.5625 20.8906 26.4338 23.3688 26.2975 25.0419C26.1294 27.1075 24.5131 28.6637 22.4644 28.8056C20.6038 28.9344 17.7469 29.0625 13.75 29.0625Z" fill="#8FBFFA"/>
<path fill-rule="evenodd" clip-rule="evenodd" d="M2.21558 7.56285C2.32891 7.43493 2.44974 7.31493 2.57808 7.20285L2.5637 7.21097C2.4137 7.29785 2.29558 7.42035 2.21558 7.56285ZM4.1312 6.35535C4.42619 6.27022 4.72932 6.21638 5.03558 6.19472C6.89558 6.06597 9.75245 5.93785 13.75 5.93785C17.7468 5.93785 20.6037 6.06597 22.4637 6.19472C22.6854 6.21014 22.901 6.24139 23.1106 6.28847C22.656 5.23715 22.1403 4.21332 21.5662 3.22222C20.6581 1.67035 18.8737 1.06785 17.225 1.47347C12.7406 2.5766 7.93245 4.38347 4.1312 6.35535ZM19.415 19.4522C19.4743 20.7835 20.5006 21.7753 21.8312 21.8285C22.5093 21.856 23.3525 21.8753 24.375 21.8753C25.3975 21.8753 26.2406 21.856 26.9187 21.8285C28.25 21.7753 29.2756 20.7835 29.3349 19.4522C29.3587 18.9103 29.375 18.2622 29.375 17.5003C29.375 16.7385 29.3587 16.0903 29.3349 15.5485C29.2756 14.2172 28.2493 13.2253 26.9187 13.1722C26.0712 13.1397 25.2231 13.1241 24.375 13.1253C23.3525 13.1253 22.5093 13.1447 21.8312 13.1722C20.5 13.2253 19.4743 14.2172 19.415 15.5485C19.3873 16.1987 19.374 16.8495 19.375 17.5003C19.375 18.2628 19.3912 18.9103 19.415 19.4522ZM23.75 15.9378C23.9986 15.9378 24.2371 16.0366 24.4129 16.2124C24.5887 16.3883 24.6875 16.6267 24.6875 16.8753V18.1253C24.6875 18.374 24.5887 18.6124 24.4129 18.7883C24.2371 18.9641 23.9986 19.0628 23.75 19.0628C23.5013 19.0628 23.2629 18.9641 23.087 18.7883C22.9112 18.6124 22.8125 18.374 22.8125 18.1253V16.8753C22.8125 16.6267 22.9112 16.3883 23.087 16.2124C23.2629 16.0366 23.5013 15.9378 23.75 15.9378Z" fill="#2859C5"/>
</svg>
